<svg xmlns="http://www.w3.org/2000/svg" fill="none" viewBox="0 0 24 24"><path fill="#fff" d="M17.407 12.62c1.992-1.102 3.02-3.493 3.08-7.174H3.513l.02.637c.165 3.32 1.185 5.5 3.06 6.536l2.033 1.103.556.315.16.108.098.091.053.085.014.045.011.098.002.239.023.298c.065.536.299 1.211 1.1 1.211.007 0 .012.004.017.012l.024.085.014.253-.008.473-.046.984c0 .213-.515.551-2.027.886-1.511.335-3.108 2.289-2.652 2.289h12.07c.456 0-1.14-1.954-2.652-2.289-1.512-.335-2.027-.673-2.027-.886l-.035-.728-.018-.73.014-.252.023-.085.016-.012c.802 0 1.036-.675 1.102-1.211l.022-.298.002-.242.011-.097.015-.044.073-.107.151-.12.323-.195 2.352-1.279ZM9.753 9.774a.081.081 0 0 1 0-.152l1.34-.523a.543.543 0 0 0 .308-.308l.523-1.34a.081.081 0 0 1 .152 0l.524 1.34a.542.542 0 0 0 .307.308l1.34.523a.081.081 0 0 1 0 .152l-1.34.524a.542.542 0 0 0-.307.307l-.524 1.34a.081.081 0 0 1-.152 0l-.523-1.34a.543.543 0 0 0-.308-.307l-1.34-.524ZM20.018 2.81 3.693 2.807l-.184.01c-.385.033-.488.138-.57.459l-.092.43-.037.244-.004.114c.01.359.27.5 1.264.535l.89.009h14.272l.664-.012.27-.016c1.009-.075 1.121-.308.977-.767l-.09-.249-.116-.281-.06-.123c-.145-.257-.323-.328-.859-.348Z"></path></svg>