<svg xmlns="http://www.w3.org/2000/svg" fill="none" viewBox="0 0 24 24"><path fill="#fff" d="M5.064 2.972C4.906 2.194 4.9 1.999 6.745 2h10.441c1.96 0 1.96.265 1.683.972-.107.272-.172.44-.293.542-.192.165-.525.165-1.39.165H6.394c-1.173.006-1.185.006-1.33-.707Zm0 18.056c-.158.778-.163.973 1.682.972h10.44c1.96 0 1.96-.265 1.683-.972-.107-.272-.172-.44-.293-.542-.152-.13-.39-.157-.91-.163v-2.435c0-1.263-.03-2.102-1.919-3.348a92.96 92.96 0 0 0-.688-.449c-1.302-.844-1.606-1.04-1.606-1.858 0-.947.038-1.053 1.99-2.71 1.953-1.655 2.224-4.21 2.224-4.53 0-.32-5.667-.227-5.667-.227s-5.667-.093-5.667.227.27 2.875 2.223 4.53c1.953 1.657 1.99 1.763 1.99 2.71 0 .818-.303 1.014-1.605 1.858-.204.132-.433.28-.689.45-1.888 1.246-1.919 2.085-1.919 3.347v2.432c-1.112-.004-1.127.008-1.269.708Zm2.6-.707v-.001c0-1.68.868-2.336 1.99-3.108.265-.182.506-.336.72-.473.69-.443 1.093-.701 1.093-1.119v-4.751c0-.48-.322-.682-.758-.956a6.32 6.32 0 0 1-.568-.39c-.69-.543-.796-1.118-.268-1.118h4.254c.527 0 .422.575-.268 1.119a6.318 6.318 0 0 1-.568.389c-.436.273-.758.476-.758.956v4.75c0 .419.403.677 1.093 1.12.214.137.455.291.72.473 1.122.772 1.99 1.428 1.99 3.108v.001H7.663Z"></path></svg>