<svg xmlns="http://www.w3.org/2000/svg" fill="none" viewBox="0 0 24 24"><path fill="#fff" d="M5.232 16.281 2.014 8.393a.185.185 0 0 1 .248-.237l1.226.56c.242.11.374.366.336.619l-.034.125a.712.712 0 0 0 .25.837l2.441 1.75a.924.924 0 0 0 1.279-.2l3.207-4.298a.924.924 0 0 0-.008-1.115l-.246-.32a.554.554 0 0 1-.006-.667l.995-1.353a.37.37 0 0 1 .596 0l.996 1.353a.554.554 0 0 1-.007.666l-.247.32a.924.924 0 0 0-.007 1.116l3.207 4.299a.924.924 0 0 0 1.279.198l2.442-1.749a.712.712 0 0 0 .286-.705l-.037-.132a.586.586 0 0 1 .302-.744l1.226-.56a.185.185 0 0 1 .248.237l-3.218 7.888a3.695 3.695 0 0 1-1.979 2.006l-3.346 1.42a3.695 3.695 0 0 1-2.886 0l-3.346-1.42a3.695 3.695 0 0 1-1.98-2.006Zm5.856-.903a.545.545 0 0 1 .31.31l.526 1.345a.082.082 0 0 0 .152 0l.526-1.346a.545.545 0 0 1 .31-.31l1.346-.525a.082.082 0 0 0 0-.153l-1.346-.526a.545.545 0 0 1-.31-.309l-.526-1.346a.082.082 0 0 0-.152 0l-.526 1.346a.545.545 0 0 1-.31.31l-1.346.525a.082.082 0 0 0 0 .153l1.346.526Z"></path></svg>